<svg width="195" height="48" viewBox="0 0 195 48" fill="none" xmlns="http://www.w3.org/2000/svg">
<g filter="url(#filter0_d_3_268)">
<rect x="2" y="1" width="43.493" height="44" rx="8" fill="white"/>
<path d="M28.0938 9.25H21.5314L11.5142 19.231H18.2873L28.0938 9.25Z" fill="#FF7A7F"/>
<path d="M32.7081 18.0056H26.1457L16.1284 27.9866H22.9016L32.7081 18.0056Z" fill="#FF7A7F"/>
<path d="M37.3382 26.7651H30.7797L20.7585 36.75H27.5317L37.3382 26.7651Z" fill="#FF7A7F"/>
</g>
<g clip-path="url(#clip0_3_268)">
<path d="M113.199 32.3765C114.024 32.4132 114.838 32.1678 115.507 31.6806C116.122 31.1948 116.584 30.5415 116.837 29.799C117.142 28.9431 117.292 28.0397 117.281 27.131C117.288 26.2306 117.132 25.3365 116.821 24.4917C116.558 23.7376 116.079 23.0777 115.445 22.5936C114.758 22.0984 113.925 21.8477 113.08 21.8813C112.286 21.8459 111.505 22.081 110.862 22.5484C110.265 23.0221 109.822 23.6626 109.589 24.3888C109.304 25.2744 109.165 26.2006 109.178 27.131C109.167 28.0612 109.305 28.9872 109.589 29.8731C109.808 30.6452 110.287 31.317 110.946 31.7736C111.604 32.2303 112.401 32.4434 113.199 32.3765V32.3765ZM106.061 42.2499V19.1392H109.211V30.3631H109.654V42.2499H106.061ZM113.765 35.5798C112.376 35.6283 111.006 35.2396 109.847 34.4681C108.779 33.7102 107.952 32.6594 107.465 31.4418C106.919 30.0716 106.648 28.6065 106.669 27.131C106.645 25.6498 106.916 24.1787 107.465 22.8036C107.944 21.5985 108.754 20.5546 109.802 19.7938C110.929 19.025 112.271 18.6356 113.634 18.6822C115.022 18.6478 116.388 19.0354 117.552 19.7938C118.677 20.5367 119.573 21.5789 120.139 22.8036C120.768 24.1577 121.082 25.6375 121.055 27.131C121.081 28.6177 120.772 30.091 120.152 31.4418C119.596 32.6645 118.717 33.7111 117.61 34.4681C116.465 35.2269 115.116 35.615 113.745 35.5798H113.765ZM90.4747 28.1233V25.4264H101.461V28.1233H90.4747ZM95.974 35.5798C94.4875 35.6129 93.0191 35.2492 91.7191 34.5257C90.5084 33.84 89.5127 32.829 88.8442 31.6065C88.1466 30.2835 87.7961 28.8043 87.8257 27.308C87.7852 25.7318 88.1307 24.1697 88.8319 22.7583C89.4587 21.5095 90.4274 20.4654 91.6247 19.7486C92.8811 19.0196 94.3132 18.6507 95.7645 18.6822C97.2546 18.6371 98.7234 19.0447 99.9783 19.8515C101.163 20.6514 102.068 21.8033 102.566 23.1454C103.152 24.7405 103.369 26.4481 103.202 28.1397H99.6661V26.8181C99.6661 25.0805 99.354 23.8083 98.7503 23.0095C98.1466 22.2107 97.2019 21.8072 95.9124 21.8072C94.453 21.8072 93.3688 22.2629 92.6596 23.1742C91.9505 24.0855 91.5959 25.4044 91.5959 27.131C91.5959 28.7505 91.9505 30.0049 92.6596 30.8942C93.3688 31.7836 94.4037 32.2283 95.7645 32.2283C96.5575 32.2497 97.3408 32.0501 98.0275 31.6518C98.6789 31.2442 99.1938 30.6506 99.506 29.9472L103.026 31.0136C102.455 32.4046 101.462 33.5801 100.188 34.3734C98.9285 35.1744 97.4652 35.5934 95.974 35.5798V35.5798ZM74.9585 21.9266V19.1392H86.0926V21.939L74.9585 21.9266ZM86.0926 35.1351C85.0695 35.3295 84.0286 35.4137 82.9877 35.3863C82.0585 35.3824 81.1391 35.1964 80.2812 34.8387C79.5035 34.5019 78.8623 33.9113 78.4618 33.1629C78.1065 32.5112 77.9095 31.7848 77.8868 31.0425C77.8676 30.3233 77.8567 29.5081 77.8539 28.5967V14.6801H81.4188V28.3909C81.4188 29.0332 81.4188 29.5973 81.4188 30.079C81.4194 30.4946 81.5269 30.903 81.7309 31.2648C81.9089 31.5596 82.1578 31.805 82.4548 31.9784C82.7519 32.1517 83.0876 32.2476 83.4312 32.2571C84.3198 32.3233 85.213 32.2846 86.0926 32.1418V35.1351ZM65.1798 35.5798C63.7356 35.609 62.301 35.3384 60.966 34.7851C59.7643 34.2674 58.7079 33.4615 57.8899 32.4382C57.0761 31.3856 56.5509 30.138 56.3662 28.8191L60.0625 28.255C60.3239 29.4404 61.0146 30.4864 62.001 31.1907C62.9977 31.8859 64.1875 32.2489 65.4016 32.2283C66.131 32.2319 66.8558 32.1122 67.5454 31.8742C68.1704 31.6702 68.7349 31.3137 69.1882 30.8366C69.6099 30.3826 69.837 29.7809 69.8207 29.1608C69.825 28.8793 69.7747 28.5997 69.6728 28.3374C69.5744 28.0809 69.4233 27.848 69.2293 27.6539C69.0155 27.4352 68.7653 27.2554 68.49 27.1227C68.1613 26.9475 67.8142 26.8094 67.4551 26.711L61.9558 25.0641C61.4343 24.9096 60.9215 24.7268 60.4198 24.5165C59.8595 24.2705 59.3368 23.9461 58.8674 23.553C58.367 23.1158 57.9592 22.5823 57.6681 21.9843C57.3353 21.2404 57.1712 20.4319 57.1876 19.6168C57.1467 18.3816 57.5134 17.1674 58.2308 16.1623C58.9484 15.2073 59.923 14.4774 61.04 14.0584C62.301 13.5785 63.6424 13.3464 64.9909 13.3749C66.3304 13.3611 67.6589 13.6188 68.8966 14.1325C70.0128 14.5921 70.9999 15.3187 71.7715 16.2488C72.5713 17.2292 73.1336 18.382 73.4143 19.6168L69.5866 20.2838C69.4502 19.5766 69.1332 18.917 68.6666 18.3692C68.2267 17.8304 67.663 17.4066 67.0238 17.134C66.3737 16.8564 65.6768 16.7054 64.9703 16.6894C64.277 16.6749 63.5872 16.7923 62.9374 17.0352C62.379 17.2259 61.8765 17.5528 61.4753 17.9863C61.1155 18.3822 60.9189 18.9001 60.925 19.4356C60.9077 19.9127 61.0789 20.3773 61.4014 20.7285C61.7332 21.0659 62.13 21.3321 62.5678 21.5108C63.0361 21.697 63.5147 21.8565 64.0011 21.9884L67.8165 23.0548C68.3381 23.1907 68.9254 23.3801 69.5743 23.6189C70.2427 23.8638 70.8754 24.1975 71.4553 24.6112C72.068 25.0507 72.5735 25.6236 72.9338 26.2869C73.3566 27.0986 73.5605 28.007 73.5252 28.922C73.5464 29.9404 73.306 30.9471 72.827 31.8453C72.3758 32.664 71.7436 33.3682 70.9789 33.904C70.1669 34.47 69.2619 34.8881 68.3052 35.1392C67.288 35.4266 66.2366 35.5748 65.1798 35.5798V35.5798Z" fill="#252422"/>
<path d="M174.076 28.1234V25.4265H185.058V28.1234H174.076ZM179.576 35.5799C178.088 35.613 176.618 35.2492 175.317 34.5258C174.106 33.8405 173.11 32.8294 172.442 31.6066C171.741 30.2847 171.389 28.8049 171.419 27.3081C171.381 25.7321 171.726 24.1705 172.425 22.7584C173.052 21.5096 174.021 20.4655 175.218 19.7487C176.475 19.0206 177.907 18.6518 179.358 18.6823C180.848 18.6351 182.318 19.0429 183.572 19.8516C184.758 20.6492 185.664 21.8019 186.159 23.1455C186.747 24.7401 186.965 26.4482 186.796 28.1398H183.272V26.8182C183.272 25.0806 182.956 23.8084 182.356 23.0096C181.756 22.2108 180.808 21.8073 179.514 21.8073C178.055 21.8073 176.97 22.263 176.261 23.1743C175.552 24.0856 175.198 25.4045 175.198 27.1311C175.198 28.7492 175.555 30.0132 176.261 30.8943C176.968 31.7755 178.007 32.2284 179.366 32.2284C180.159 32.2502 180.943 32.0506 181.629 31.6519C182.281 31.2443 182.795 30.6507 183.108 29.9473L186.627 31.0137C186.057 32.405 185.064 33.5806 183.789 34.3735C182.53 35.1735 181.067 35.5923 179.576 35.5799V35.5799ZM162.482 35.5799C160.511 35.5799 158.909 35.1352 157.677 34.2459C157.068 33.8064 156.555 33.2471 156.169 32.6023C155.783 31.9574 155.531 31.2404 155.431 30.495L159.069 29.9309C159.231 30.6869 159.671 31.3542 160.302 31.8002C161.022 32.2777 161.874 32.5154 162.737 32.4795C163.434 32.5243 164.128 32.3486 164.721 31.9772C164.947 31.8209 165.131 31.61 165.255 31.364C165.379 31.118 165.44 30.8446 165.431 30.5691C165.448 30.2556 165.353 29.9465 165.164 29.6962C164.854 29.3808 164.466 29.1547 164.039 29.0415C163.46 28.8357 162.564 28.5721 161.365 28.2551C160.263 27.989 159.192 27.6067 158.17 27.1146C157.482 26.7884 156.894 26.282 156.47 25.6488C156.108 25.0249 155.929 24.3115 155.952 23.5902C155.933 22.6589 156.207 21.7452 156.737 20.9797C157.29 20.2143 158.049 19.6229 158.926 19.2752C159.977 18.8497 161.103 18.6438 162.236 18.6699C163.358 18.6516 164.473 18.8472 165.522 19.2463C166.426 19.5895 167.23 20.156 167.858 20.8933C168.45 21.6082 168.829 22.4758 168.951 23.3966L165.32 24.0801C165.29 23.7542 165.19 23.4386 165.028 23.1545C164.866 22.8705 164.645 22.6245 164.38 22.4332C163.761 22.0064 163.028 21.7742 162.277 21.7662C161.579 21.6879 160.873 21.8228 160.252 22.1532C160.019 22.269 159.822 22.4489 159.687 22.6718C159.551 22.8948 159.481 23.1518 159.484 23.4131C159.482 23.5584 159.508 23.7027 159.561 23.8378C159.615 23.9728 159.695 24.0958 159.796 24.1995C160.157 24.5002 160.577 24.7218 161.028 24.8501C161.661 25.0697 162.597 25.3359 163.838 25.6488C164.896 25.8968 165.92 26.2757 166.885 26.777C167.566 27.0924 168.138 27.6055 168.525 28.25C168.912 28.8945 169.098 29.6407 169.058 30.392C169.09 31.1202 168.947 31.8456 168.641 32.5065C168.334 33.1674 167.872 33.7443 167.296 34.1882C166.146 35.116 164.541 35.5799 162.482 35.5799ZM148.326 35.1352V19.1393H151.89V35.1352H148.326ZM148.326 16.6936V13.4203H151.89V16.7142L148.326 16.6936ZM127.692 35.1352L122.813 19.0981L126.304 19.1269L129.425 29.4203L132.588 19.1269H135.59L138.74 29.4203L141.874 19.1269H145.36L140.481 35.1352H137.684L134.083 24.1213L130.473 35.1352H127.692Z" fill="#252422"/>
</g>
<defs>
<filter id="filter0_d_3_268" x="0" y="0" width="47.4929" height="48" filterUnits="userSpaceOnUse" color-interpolation-filters="sRGB">
<feFlood flood-opacity="0" result="BackgroundImageFix"/>
<feColorMatrix in="SourceAlpha" type="matrix" values="0 0 0 0 0 0 0 0 0 0 0 0 0 0 0 0 0 0 127 0" result="hardAlpha"/>
<feOffset dy="1"/>
<feGaussianBlur stdDeviation="1"/>
<feColorMatrix type="matrix" values="0 0 0 0 0.0627451 0 0 0 0 0.0941176 0 0 0 0 0.156863 0 0 0 0.06 0"/>
<feBlend mode="normal" in2="BackgroundImageFix" result="effect1_dropShadow_3_268"/>
<feBlend mode="normal" in="SourceGraphic" in2="effect1_dropShadow_3_268" result="shape"/>
</filter>
<clipPath id="clip0_3_268">
<rect width="130.479" height="28.875" fill="white" transform="translate(56.3662 13.375)"/>
</clipPath>
</defs>
</svg>
