<svg width="24" height="24" viewBox="0 0 24 24" fill="none" xmlns="http://www.w3.org/2000/svg">
    <path d="M10.68 8H3.32C3.143 8 3 8.143 3 8.32V15.68C3 15.857 3.143 16 3.32 16H10.68C10.857 16 11 15.857 11 15.68V8.32C11 8.143 10.857 8 10.68 8ZM10.28 15.28H3.72V8.72H10.28V15.28Z"
          fill="currentColor" stroke="currentColor"/>
    <path d="M20.68 8H13.32C13.143 8 13 8.143 13 8.32V15.68C13 15.857 13.143 16 13.32 16H20.68C20.857 16 21 15.857 21 15.68V8.32C21 8.143 20.857 8 20.68 8ZM20.28 15.28H13.72V8.72H20.28V15.28Z"
          fill="currentColor" stroke="currentColor"/>
</svg>
