<svg width="1em" height="1em" viewBox="0 0 32 32" fill="none" xmlns="http://www.w3.org/2000/svg">
    <path d="M10.6667 7.21875C10.6667 7.68288 10.851 8.128 11.1792 8.45619C11.5074 8.78438 11.9525 8.96875 12.4167 8.96875C12.8808 8.96875 13.3259 8.78438 13.6541 8.45619C13.9823 8.128 14.1667 7.68288 14.1667 7.21875C14.1667 6.75462 13.9823 6.3095 13.6541 5.98131C13.3259 5.65312 12.8808 5.46875 12.4167 5.46875C11.9525 5.46875 11.5074 5.65312 11.1792 5.98131C10.851 6.3095 10.6667 6.75462 10.6667 7.21875ZM10.6667 15.9688C10.6667 16.4329 10.851 16.878 11.1792 17.2062C11.5074 17.5344 11.9525 17.7188 12.4167 17.7188C12.8808 17.7188 13.3259 17.5344 13.6541 17.2062C13.9823 16.878 14.1667 16.4329 14.1667 15.9688C14.1667 15.5046 13.9823 15.0595 13.6541 14.7313C13.3259 14.4031 12.8808 14.2188 12.4167 14.2188C11.9525 14.2188 11.5074 14.4031 11.1792 14.7313C10.851 15.0595 10.6667 15.5046 10.6667 15.9688ZM10.6667 24.7188C10.6667 25.1829 10.851 25.628 11.1792 25.9562C11.5074 26.2844 11.9525 26.4688 12.4167 26.4688C12.8808 26.4688 13.3259 26.2844 13.6541 25.9562C13.9823 25.628 14.1667 25.1829 14.1667 24.7188C14.1667 24.2546 13.9823 23.8095 13.6541 23.4813C13.3259 23.1531 12.8808 22.9688 12.4167 22.9688C11.9525 22.9688 11.5074 23.1531 11.1792 23.4813C10.851 23.8095 10.6667 24.2546 10.6667 24.7188Z"
          fill="#667085"/>
    <path d="M17.75 7.21875C17.75 7.68288 17.9344 8.128 18.2626 8.45619C18.5908 8.78438 19.0359 8.96875 19.5 8.96875C19.9641 8.96875 20.4092 8.78438 20.7374 8.45619C21.0656 8.128 21.25 7.68288 21.25 7.21875C21.25 6.75462 21.0656 6.3095 20.7374 5.98131C20.4092 5.65312 19.9641 5.46875 19.5 5.46875C19.0359 5.46875 18.5908 5.65312 18.2626 5.98131C17.9344 6.3095 17.75 6.75462 17.75 7.21875ZM17.75 15.9688C17.75 16.4329 17.9344 16.878 18.2626 17.2062C18.5908 17.5344 19.0359 17.7188 19.5 17.7188C19.9641 17.7188 20.4092 17.5344 20.7374 17.2062C21.0656 16.878 21.25 16.4329 21.25 15.9688C21.25 15.5046 21.0656 15.0595 20.7374 14.7313C20.4092 14.4031 19.9641 14.2188 19.5 14.2188C19.0359 14.2188 18.5908 14.4031 18.2626 14.7313C17.9344 15.0595 17.75 15.5046 17.75 15.9688ZM17.75 24.7188C17.75 25.1829 17.9344 25.628 18.2626 25.9562C18.5908 26.2844 19.0359 26.4688 19.5 26.4688C19.9641 26.4688 20.4092 26.2844 20.7374 25.9562C21.0656 25.628 21.25 25.1829 21.25 24.7188C21.25 24.2546 21.0656 23.8095 20.7374 23.4813C20.4092 23.1531 19.9641 22.9688 19.5 22.9688C19.0359 22.9688 18.5908 23.1531 18.2626 23.4813C17.9344 23.8095 17.75 24.2546 17.75 24.7188Z"
          fill="#667085"/>
</svg>
