<svg width="24" height="24" viewBox="0 0 24 24" fill="none" xmlns="http://www.w3.org/2000/svg">
    <path d="M17.25 12.8906H6.75C6.54375 12.8906 6.375 13.0594 6.375 13.2656V17.3906C6.375 17.5969 6.54375 17.7656 6.75 17.7656H17.25C17.4563 17.7656 17.625 17.5969 17.625 17.3906V13.2656C17.625 13.0594 17.4563 12.8906 17.25 12.8906ZM15.9375 16.0781H8.0625V14.5781H15.9375V16.0781ZM17.25 6.23438H6.75C6.54375 6.23438 6.375 6.40312 6.375 6.60938V10.7344C6.375 10.9406 6.54375 11.1094 6.75 11.1094H17.25C17.4563 11.1094 17.625 10.9406 17.625 10.7344V6.60938C17.625 6.40312 17.4563 6.23438 17.25 6.23438ZM15.9375 9.42188H8.0625V7.92188H15.9375V9.42188Z"
          fill="currentColor"/>
</svg>
