<svg width="34" height="34" viewBox="0 0 24 24" fill="none" xmlns="http://www.w3.org/2000/svg">
<path d="M10.4 11.2143C10.4 10.7803 10.7582 10.4286 11.2 10.4286H16C16.4418 10.4286 16.8 10.7803 16.8 11.2143C16.8 11.6482 16.4418 12 16 12H11.2C10.7582 12 10.4 11.6482 10.4 11.2143ZM10.4 15.9286C10.4 15.4946 10.7582 15.1429 11.2 15.1429H16C16.4418 15.1429 16.8 15.4946 16.8 15.9286C16.8 16.3625 16.4418 16.7143 16 16.7143H11.2C10.7582 16.7143 10.4 16.3625 10.4 15.9286ZM8.00028 12C8.44211 12 8.80028 11.6482 8.80028 11.2143C8.80028 10.7803 8.44211 10.4286 8.00028 10.4286C7.55845 10.4286 7.20028 10.7803 7.20028 11.2143C7.20028 11.6482 7.55845 12 8.00028 12ZM8 16.7143C8.44183 16.7143 8.8 16.3625 8.8 15.9286C8.8 15.4946 8.44183 15.1429 8 15.1429C7.55817 15.1429 7.2 15.4946 7.2 15.9286C7.2 16.3625 7.55817 16.7143 8 16.7143ZM7.33656 2.57143C7.66603 1.65592 8.55502 1 9.6 1H14.4C15.445 1 16.334 1.65592 16.6634 2.57143H17.6C18.9255 2.57143 20 3.62676 20 4.92857V20.6429C20 21.9447 18.9255 23 17.6 23H6.4C5.07452 23 4 21.9447 4 20.6429V4.92857C4 3.62676 5.07452 2.57143 6.4 2.57143H7.33656ZM9.6 2.57143C9.15817 2.57143 8.8 2.9232 8.8 3.35714C8.8 3.79108 9.15817 4.14286 9.6 4.14286H14.4C14.8418 4.14286 15.2 3.79108 15.2 3.35714C15.2 2.9232 14.8418 2.57143 14.4 2.57143H9.6ZM7.33656 4.14286H6.4C5.95817 4.14286 5.6 4.49463 5.6 4.92857V20.6429C5.6 21.0768 5.95817 21.4286 6.4 21.4286H17.6C18.0418 21.4286 18.4 21.0768 18.4 20.6429V4.92857C18.4 4.49463 18.0418 4.14286 17.6 4.14286H16.6634C16.334 5.05837 15.445 5.71429 14.4 5.71429H9.6C8.55502 5.71429 7.66603 5.05837 7.33656 4.14286Z" fill="#FF7A7F"/>
</svg>
