<svg width="1em" height="1em" viewBox="0 0 42 42" fill="none" xmlns="http://www.w3.org/2000/svg">
    <path d="M36.6074 39.0704L36.6072 39.0703L33.7419 37.5547L33.7419 37.5547C33.5181 37.4364 33.2507 37.4418 33.0318 37.5656L33.0309 37.5661L30.672 38.9141L28.2531 37.7047L28.2529 37.7045C27.8402 37.4988 27.3518 37.5066 26.946 37.7259L26.9459 37.726L24.7421 38.9186L22.4906 37.7853L22.4905 37.7853C22.0894 37.5835 21.6115 37.5836 21.2112 37.7882C21.2111 37.7883 21.2111 37.7883 21.211 37.7883L18.9626 38.9326L16.708 37.7741C16.7079 37.7741 16.7077 37.774 16.7076 37.774C16.2932 37.5601 15.8002 37.5652 15.3888 37.7861L15.3886 37.7862L13.2692 38.927L10.9366 37.7196C10.9366 37.7196 10.9366 37.7196 10.9366 37.7196C10.5139 37.5007 10.0122 37.5088 9.5959 37.7408L9.59582 37.7408L7.12844 39.1172C7.12842 39.1172 7.1284 39.1172 7.12837 39.1172C6.7724 39.3157 6.64531 39.765 6.84337 40.1208L6.8434 40.1208C6.97845 40.3633 7.23021 40.4997 7.48861 40.4997C7.61023 40.4997 7.73399 40.4696 7.84752 40.4062C7.84757 40.4062 7.84761 40.4061 7.84765 40.4061L10.2874 39.0455L12.6196 40.2527L12.6196 40.2528C13.0353 40.4679 13.53 40.4642 13.9417 40.2416C13.9418 40.2416 13.9418 40.2416 13.9419 40.2415L16.0608 39.101L18.3157 40.2599L18.3162 40.2602C18.7195 40.4664 19.2007 40.4671 19.6047 40.2625L19.6052 40.2623L21.8541 39.1177L24.1067 40.2514L24.1069 40.2515C24.5203 40.4592 25.01 40.4522 25.4171 40.2321L25.4171 40.2321L27.6212 39.0393L30.0406 40.2491L30.0407 40.2492C30.4649 40.4609 30.964 40.4469 31.3763 40.2122L31.3766 40.212L33.4107 39.0496L35.917 40.3753L35.9171 40.3754C36.2771 40.5657 36.7239 40.4286 36.9144 40.0677C37.1046 39.7075 36.9675 39.2613 36.6074 39.0704Z"
          fill="currentColor" stroke="currentColor" stroke-width="0.5"/>
    <path d="M9.52303 25.6882C9.52773 25.6916 9.53416 25.6961 9.54139 25.7008C9.54346 25.7023 9.54581 25.7039 9.54838 25.7057L9.55649 25.7111L9.56499 25.7158L17.6959 30.2646V34.5444C17.6959 34.9518 18.0265 35.2824 18.4339 35.2824C18.8413 35.2824 19.1718 34.9518 19.1718 34.5444V25.8787H24.5957V34.5447C24.5957 34.9522 24.9262 35.2827 25.3336 35.2827C25.7411 35.2827 26.0716 34.9522 26.0716 34.5447V30.1697L33.8738 25.7915C33.9407 25.7626 34.0013 25.7273 34.0562 25.6892L34.14 25.642C34.14 25.642 34.1401 25.6419 34.1401 25.6419C34.4096 25.4901 34.5434 25.1963 34.5093 24.9107C34.5126 24.8851 34.5165 24.8488 34.5165 24.8155V17.6978C34.5165 17.1115 34.04 16.6345 33.4533 16.6345H21.0818L16.9719 3.4144H17.7546C18.162 3.4144 18.4926 3.08429 18.4926 2.67644C18.4926 2.26858 18.162 1.93848 17.7546 1.93848H14.1847C13.777 1.93848 13.4468 2.26869 13.4468 2.67644C13.4468 3.08419 13.777 3.4144 14.1847 3.4144H14.9672L10.8575 16.6345H10.1278C9.5415 16.6345 9.06458 17.1114 9.06458 17.6978V24.8155C9.06458 25.121 9.19545 25.3933 9.39799 25.5853C9.43449 25.6229 9.47612 25.6578 9.52303 25.6882ZM17.6959 25.8787V28.5742L12.8782 25.8787H17.6959ZM26.0716 25.8787H30.7016L26.0716 28.477V25.8787ZM15.9697 5.16201L19.5364 16.6345H12.4033L15.9697 5.16201ZM10.5405 18.1104H11.4011H20.5386H33.0406V24.4028H10.5405V18.1104Z"
          fill="currentColor" stroke="currentColor" stroke-width="0.5"/>
</svg>
