<svg width="34" height="34" viewBox="0 0 42 42" fill="none" xmlns="http://www.w3.org/2000/svg">
    <rect width="42" height="42" fill="none"/>
    <mask id="path-1-outside-1_1553_62519" maskUnits="userSpaceOnUse" x="15.3295" y="5.99976" width="12" height="30"
          fill="black">
        <rect fill="white" x="15.3295" y="5.99976" width="12" height="30"/>
        <path d="M17.4862 24.566C17.3642 24.4369 17.1958 24.3616 17.0182 24.3566C16.8406 24.3515 16.6683 24.4173 16.5392 24.5393C16.4101 24.6614 16.3347 24.8297 16.3297 25.0073C16.3247 25.1849 16.3905 25.3572 16.5125 25.4863L17.4995 26.5267V30.955C17.4996 31.1223 17.5613 31.2838 17.6729 31.4085L20.8607 34.783C20.9208 34.8511 20.9947 34.9057 21.0775 34.9431C21.1603 34.9804 21.2501 34.9998 21.3409 34.9998C21.4317 34.9998 21.5215 34.9804 21.6043 34.9431C21.6871 34.9057 21.761 34.8511 21.8211 34.783L25.0089 31.4085C25.1205 31.2838 25.1822 31.1223 25.1823 30.955V29.5545C25.2469 29.6193 25.3238 29.6704 25.4086 29.7048C25.4934 29.7392 25.5843 29.7561 25.6758 29.7545C25.8076 29.7592 25.9377 29.7239 26.049 29.6533C26.1604 29.5827 26.2478 29.48 26.2997 29.3588C26.3516 29.2376 26.3657 29.1036 26.3401 28.9742C26.3144 28.8449 26.2502 28.7263 26.156 28.6341L25.1689 27.5938V24.3793C25.2314 24.4478 25.3077 24.5023 25.3927 24.5391C25.4778 24.5759 25.5698 24.5942 25.6625 24.5927C25.8316 24.589 25.9933 24.5224 26.1159 24.406C26.1781 24.3451 26.2274 24.2725 26.2611 24.1923C26.2948 24.1122 26.3121 24.0261 26.3121 23.9391C26.3121 23.8522 26.2948 23.7661 26.2611 23.6859C26.2274 23.6058 26.1781 23.5332 26.1159 23.4723L25.1289 22.4319V19.2308C25.1935 19.2956 25.2705 19.3467 25.3553 19.3811C25.4401 19.4155 25.531 19.4324 25.6224 19.4309C25.7542 19.4355 25.8843 19.4002 25.9957 19.3296C26.107 19.259 26.1944 19.1563 26.2464 19.0352C26.2983 18.914 26.3124 18.7799 26.2867 18.6505C26.2611 18.5212 26.1969 18.4027 26.1026 18.3105L25.1156 17.2701V14.0689C25.178 14.1375 25.2543 14.192 25.3394 14.2287C25.4245 14.2655 25.5164 14.2838 25.6091 14.2824C25.6934 14.2833 25.7769 14.2673 25.8549 14.2352C25.9328 14.2031 26.0034 14.1556 26.0626 14.0956C26.1247 14.0348 26.174 13.9621 26.2077 13.882C26.2414 13.8018 26.2588 13.7157 26.2588 13.6288C26.2588 13.5418 26.2414 13.4558 26.2077 13.3756C26.174 13.2954 26.1247 13.2228 26.0626 13.162L25.0756 12.1216V7.66666C25.0756 7.48979 25.0053 7.32016 24.8802 7.19509C24.7552 7.07002 24.5855 6.99976 24.4087 6.99976C24.2318 6.99976 24.0622 7.07002 23.9371 7.19509C23.812 7.32016 23.7418 7.48979 23.7418 7.66666V10.7211L21.0875 7.77336C20.9654 7.64425 20.7971 7.5689 20.6195 7.5639C20.4419 7.55889 20.2696 7.62465 20.1405 7.74669C20.0114 7.86873 19.936 8.03707 19.931 8.21467C19.926 8.39226 19.9918 8.56458 20.1138 8.69369L23.8485 12.6951V15.9096L18.8334 10.5744V7.66666C18.8334 7.48979 18.7631 7.32016 18.638 7.19509C18.513 7.07002 18.3433 6.99976 18.1664 6.99976C17.9896 6.99976 17.8199 7.07002 17.6949 7.19509C17.5698 7.32016 17.4995 7.48979 17.4995 7.66666V9.12051C17.3775 8.99139 17.2092 8.91605 17.0316 8.91104C16.854 8.90604 16.6817 8.97179 16.5525 9.09384C16.4234 9.21588 16.3481 9.38422 16.3431 9.56181C16.3381 9.73941 16.4038 9.91172 16.5259 10.0408L17.5129 11.0812V14.3357C17.4509 14.2732 17.3771 14.2236 17.2959 14.1897C17.2146 14.1559 17.1274 14.1384 17.0394 14.1384C16.9513 14.1384 16.8642 14.1559 16.7829 14.1897C16.7016 14.2236 16.6279 14.2732 16.5659 14.3357C16.5038 14.3966 16.4544 14.4692 16.4207 14.5494C16.3871 14.6295 16.3697 14.7156 16.3697 14.8025C16.3697 14.8895 16.3871 14.9756 16.4207 15.0557C16.4544 15.1359 16.5038 15.2085 16.5659 15.2694L17.5529 16.3097V19.5242C17.4925 19.4603 17.42 19.4089 17.3397 19.3729C17.2594 19.337 17.1729 19.3172 17.0849 19.3148C16.997 19.3123 16.9094 19.3271 16.8272 19.3585C16.745 19.3899 16.6698 19.4371 16.6059 19.4975C16.542 19.558 16.4906 19.6304 16.4546 19.7107C16.4187 19.791 16.3989 19.8776 16.3964 19.9655C16.3939 20.0535 16.4088 20.141 16.4402 20.2232C16.4715 20.3054 16.5188 20.3806 16.5792 20.4446L17.5662 21.4849V24.6861L17.4862 24.566ZM18.82 12.4817L23.8351 17.8169V21.0048L18.82 15.6695V12.4817ZM18.82 17.6302L23.8351 22.9654V26.1799L18.82 20.8447V17.6302ZM18.82 22.7921L23.8351 28.1273V30.6882L21.3276 33.3558L18.82 30.6882V27.9406L21.581 30.8883C21.6456 30.9531 21.7226 31.0042 21.8074 31.0386C21.8922 31.073 21.983 31.0899 22.0745 31.0883C22.2063 31.093 22.3364 31.0577 22.4477 30.9871C22.5591 30.9165 22.6465 30.8138 22.6984 30.6926C22.7504 30.5714 22.7644 30.4374 22.7388 30.308C22.7131 30.1787 22.6489 30.0601 22.5547 29.9679L18.82 25.9665V22.7921Z"/>
    </mask>
    <path d="M17.4862 24.566C17.3642 24.4369 17.1958 24.3616 17.0182 24.3566C16.8406 24.3515 16.6683 24.4173 16.5392 24.5393C16.4101 24.6614 16.3347 24.8297 16.3297 25.0073C16.3247 25.1849 16.3905 25.3572 16.5125 25.4863L17.4995 26.5267V30.955C17.4996 31.1223 17.5613 31.2838 17.6729 31.4085L20.8607 34.783C20.9208 34.8511 20.9947 34.9057 21.0775 34.9431C21.1603 34.9804 21.2501 34.9998 21.3409 34.9998C21.4317 34.9998 21.5215 34.9804 21.6043 34.9431C21.6871 34.9057 21.761 34.8511 21.8211 34.783L25.0089 31.4085C25.1205 31.2838 25.1822 31.1223 25.1823 30.955V29.5545C25.2469 29.6193 25.3238 29.6704 25.4086 29.7048C25.4934 29.7392 25.5843 29.7561 25.6758 29.7545C25.8076 29.7592 25.9377 29.7239 26.049 29.6533C26.1604 29.5827 26.2478 29.48 26.2997 29.3588C26.3516 29.2376 26.3657 29.1036 26.3401 28.9742C26.3144 28.8449 26.2502 28.7263 26.156 28.6341L25.1689 27.5938V24.3793C25.2314 24.4478 25.3077 24.5023 25.3927 24.5391C25.4778 24.5759 25.5698 24.5942 25.6625 24.5927C25.8316 24.589 25.9933 24.5224 26.1159 24.406C26.1781 24.3451 26.2274 24.2725 26.2611 24.1923C26.2948 24.1122 26.3121 24.0261 26.3121 23.9391C26.3121 23.8522 26.2948 23.7661 26.2611 23.6859C26.2274 23.6058 26.1781 23.5332 26.1159 23.4723L25.1289 22.4319V19.2308C25.1935 19.2956 25.2705 19.3467 25.3553 19.3811C25.4401 19.4155 25.531 19.4324 25.6224 19.4309C25.7542 19.4355 25.8843 19.4002 25.9957 19.3296C26.107 19.259 26.1944 19.1563 26.2464 19.0352C26.2983 18.914 26.3124 18.7799 26.2867 18.6505C26.2611 18.5212 26.1969 18.4027 26.1026 18.3105L25.1156 17.2701V14.0689C25.178 14.1375 25.2543 14.192 25.3394 14.2287C25.4245 14.2655 25.5164 14.2838 25.6091 14.2824C25.6934 14.2833 25.7769 14.2673 25.8549 14.2352C25.9328 14.2031 26.0034 14.1556 26.0626 14.0956C26.1247 14.0348 26.174 13.9621 26.2077 13.882C26.2414 13.8018 26.2588 13.7157 26.2588 13.6288C26.2588 13.5418 26.2414 13.4558 26.2077 13.3756C26.174 13.2954 26.1247 13.2228 26.0626 13.162L25.0756 12.1216V7.66666C25.0756 7.48979 25.0053 7.32016 24.8802 7.19509C24.7552 7.07002 24.5855 6.99976 24.4087 6.99976C24.2318 6.99976 24.0622 7.07002 23.9371 7.19509C23.812 7.32016 23.7418 7.48979 23.7418 7.66666V10.7211L21.0875 7.77336C20.9654 7.64425 20.7971 7.5689 20.6195 7.5639C20.4419 7.55889 20.2696 7.62465 20.1405 7.74669C20.0114 7.86873 19.936 8.03707 19.931 8.21467C19.926 8.39226 19.9918 8.56458 20.1138 8.69369L23.8485 12.6951V15.9096L18.8334 10.5744V7.66666C18.8334 7.48979 18.7631 7.32016 18.638 7.19509C18.513 7.07002 18.3433 6.99976 18.1664 6.99976C17.9896 6.99976 17.8199 7.07002 17.6949 7.19509C17.5698 7.32016 17.4995 7.48979 17.4995 7.66666V9.12051C17.3775 8.99139 17.2092 8.91605 17.0316 8.91104C16.854 8.90604 16.6817 8.97179 16.5525 9.09384C16.4234 9.21588 16.3481 9.38422 16.3431 9.56181C16.3381 9.73941 16.4038 9.91172 16.5259 10.0408L17.5129 11.0812V14.3357C17.4509 14.2732 17.3771 14.2236 17.2959 14.1897C17.2146 14.1559 17.1274 14.1384 17.0394 14.1384C16.9513 14.1384 16.8642 14.1559 16.7829 14.1897C16.7016 14.2236 16.6279 14.2732 16.5659 14.3357C16.5038 14.3966 16.4544 14.4692 16.4207 14.5494C16.3871 14.6295 16.3697 14.7156 16.3697 14.8025C16.3697 14.8895 16.3871 14.9756 16.4207 15.0557C16.4544 15.1359 16.5038 15.2085 16.5659 15.2694L17.5529 16.3097V19.5242C17.4925 19.4603 17.42 19.4089 17.3397 19.3729C17.2594 19.337 17.1729 19.3172 17.0849 19.3148C16.997 19.3123 16.9094 19.3271 16.8272 19.3585C16.745 19.3899 16.6698 19.4371 16.6059 19.4975C16.542 19.558 16.4906 19.6304 16.4546 19.7107C16.4187 19.791 16.3989 19.8776 16.3964 19.9655C16.3939 20.0535 16.4088 20.141 16.4402 20.2232C16.4715 20.3054 16.5188 20.3806 16.5792 20.4446L17.5662 21.4849V24.6861L17.4862 24.566ZM18.82 12.4817L23.8351 17.8169V21.0048L18.82 15.6695V12.4817ZM18.82 17.6302L23.8351 22.9654V26.1799L18.82 20.8447V17.6302ZM18.82 22.7921L23.8351 28.1273V30.6882L21.3276 33.3558L18.82 30.6882V27.9406L21.581 30.8883C21.6456 30.9531 21.7226 31.0042 21.8074 31.0386C21.8922 31.073 21.983 31.0899 22.0745 31.0883C22.2063 31.093 22.3364 31.0577 22.4477 30.9871C22.5591 30.9165 22.6465 30.8138 22.6984 30.6926C22.7504 30.5714 22.7644 30.4374 22.7388 30.308C22.7131 30.1787 22.6489 30.0601 22.5547 29.9679L18.82 25.9665V22.7921Z"
          fill="currentColor"/>
    <path d="M17.4862 24.566C17.3642 24.4369 17.1958 24.3616 17.0182 24.3566C16.8406 24.3515 16.6683 24.4173 16.5392 24.5393C16.4101 24.6614 16.3347 24.8297 16.3297 25.0073C16.3247 25.1849 16.3905 25.3572 16.5125 25.4863L17.4995 26.5267V30.955C17.4996 31.1223 17.5613 31.2838 17.6729 31.4085L20.8607 34.783C20.9208 34.8511 20.9947 34.9057 21.0775 34.9431C21.1603 34.9804 21.2501 34.9998 21.3409 34.9998C21.4317 34.9998 21.5215 34.9804 21.6043 34.9431C21.6871 34.9057 21.761 34.8511 21.8211 34.783L25.0089 31.4085C25.1205 31.2838 25.1822 31.1223 25.1823 30.955V29.5545C25.2469 29.6193 25.3238 29.6704 25.4086 29.7048C25.4934 29.7392 25.5843 29.7561 25.6758 29.7545C25.8076 29.7592 25.9377 29.7239 26.049 29.6533C26.1604 29.5827 26.2478 29.48 26.2997 29.3588C26.3516 29.2376 26.3657 29.1036 26.3401 28.9742C26.3144 28.8449 26.2502 28.7263 26.156 28.6341L25.1689 27.5938V24.3793C25.2314 24.4478 25.3077 24.5023 25.3927 24.5391C25.4778 24.5759 25.5698 24.5942 25.6625 24.5927C25.8316 24.589 25.9933 24.5224 26.1159 24.406C26.1781 24.3451 26.2274 24.2725 26.2611 24.1923C26.2948 24.1122 26.3121 24.0261 26.3121 23.9391C26.3121 23.8522 26.2948 23.7661 26.2611 23.6859C26.2274 23.6058 26.1781 23.5332 26.1159 23.4723L25.1289 22.4319V19.2308C25.1935 19.2956 25.2705 19.3467 25.3553 19.3811C25.4401 19.4155 25.531 19.4324 25.6224 19.4309C25.7542 19.4355 25.8843 19.4002 25.9957 19.3296C26.107 19.259 26.1944 19.1563 26.2464 19.0352C26.2983 18.914 26.3124 18.7799 26.2867 18.6505C26.2611 18.5212 26.1969 18.4027 26.1026 18.3105L25.1156 17.2701V14.0689C25.178 14.1375 25.2543 14.192 25.3394 14.2287C25.4245 14.2655 25.5164 14.2838 25.6091 14.2824C25.6934 14.2833 25.7769 14.2673 25.8549 14.2352C25.9328 14.2031 26.0034 14.1556 26.0626 14.0956C26.1247 14.0348 26.174 13.9621 26.2077 13.882C26.2414 13.8018 26.2588 13.7157 26.2588 13.6288C26.2588 13.5418 26.2414 13.4558 26.2077 13.3756C26.174 13.2954 26.1247 13.2228 26.0626 13.162L25.0756 12.1216V7.66666C25.0756 7.48979 25.0053 7.32016 24.8802 7.19509C24.7552 7.07002 24.5855 6.99976 24.4087 6.99976C24.2318 6.99976 24.0622 7.07002 23.9371 7.19509C23.812 7.32016 23.7418 7.48979 23.7418 7.66666V10.7211L21.0875 7.77336C20.9654 7.64425 20.7971 7.5689 20.6195 7.5639C20.4419 7.55889 20.2696 7.62465 20.1405 7.74669C20.0114 7.86873 19.936 8.03707 19.931 8.21467C19.926 8.39226 19.9918 8.56458 20.1138 8.69369L23.8485 12.6951V15.9096L18.8334 10.5744V7.66666C18.8334 7.48979 18.7631 7.32016 18.638 7.19509C18.513 7.07002 18.3433 6.99976 18.1664 6.99976C17.9896 6.99976 17.8199 7.07002 17.6949 7.19509C17.5698 7.32016 17.4995 7.48979 17.4995 7.66666V9.12051C17.3775 8.99139 17.2092 8.91605 17.0316 8.91104C16.854 8.90604 16.6817 8.97179 16.5525 9.09384C16.4234 9.21588 16.3481 9.38422 16.3431 9.56181C16.3381 9.73941 16.4038 9.91172 16.5259 10.0408L17.5129 11.0812V14.3357C17.4509 14.2732 17.3771 14.2236 17.2959 14.1897C17.2146 14.1559 17.1274 14.1384 17.0394 14.1384C16.9513 14.1384 16.8642 14.1559 16.7829 14.1897C16.7016 14.2236 16.6279 14.2732 16.5659 14.3357C16.5038 14.3966 16.4544 14.4692 16.4207 14.5494C16.3871 14.6295 16.3697 14.7156 16.3697 14.8025C16.3697 14.8895 16.3871 14.9756 16.4207 15.0557C16.4544 15.1359 16.5038 15.2085 16.5659 15.2694L17.5529 16.3097V19.5242C17.4925 19.4603 17.42 19.4089 17.3397 19.3729C17.2594 19.337 17.1729 19.3172 17.0849 19.3148C16.997 19.3123 16.9094 19.3271 16.8272 19.3585C16.745 19.3899 16.6698 19.4371 16.6059 19.4975C16.542 19.558 16.4906 19.6304 16.4546 19.7107C16.4187 19.791 16.3989 19.8776 16.3964 19.9655C16.3939 20.0535 16.4088 20.141 16.4402 20.2232C16.4715 20.3054 16.5188 20.3806 16.5792 20.4446L17.5662 21.4849V24.6861L17.4862 24.566ZM18.82 12.4817L23.8351 17.8169V21.0048L18.82 15.6695V12.4817ZM18.82 17.6302L23.8351 22.9654V26.1799L18.82 20.8447V17.6302ZM18.82 22.7921L23.8351 28.1273V30.6882L21.3276 33.3558L18.82 30.6882V27.9406L21.581 30.8883C21.6456 30.9531 21.7226 31.0042 21.8074 31.0386C21.8922 31.073 21.983 31.0899 22.0745 31.0883C22.2063 31.093 22.3364 31.0577 22.4477 30.9871C22.5591 30.9165 22.6465 30.8138 22.6984 30.6926C22.7504 30.5714 22.7644 30.4374 22.7388 30.308C22.7131 30.1787 22.6489 30.0601 22.5547 29.9679L18.82 25.9665V22.7921Z"
          stroke="currentColor" stroke-width="0.5" mask="url(#path-1-outside-1_1553_62519)"/>
    <path d="M15.1266 20.4998H2.37343C2.36607 20.4937 2.35351 20.4816 2.33835 20.4596C2.29176 20.392 2.25 20.2725 2.25 20.1248C2.25 19.977 2.29176 19.8575 2.33835 19.7899C2.35351 19.7679 2.36607 19.7558 2.37343 19.7498H15.1266C15.1339 19.7558 15.1465 19.7679 15.1616 19.7899C15.2082 19.8575 15.25 19.977 15.25 20.1248C15.25 20.2725 15.2082 20.392 15.1616 20.4596C15.1465 20.4816 15.1339 20.4937 15.1266 20.4998Z"
          fill="currentColor" stroke="currentColor"/>
    <path d="M26.8534 20.9998H39.6466C39.8066 20.9998 39.9601 20.9076 40.0733 20.7435C40.1864 20.5794 40.25 20.3568 40.25 20.1248C40.25 19.8927 40.1864 19.6701 40.0733 19.506C39.9601 19.3419 39.8066 19.2498 39.6466 19.2498H26.8534C26.6934 19.2498 26.5399 19.3419 26.4267 19.506C26.3136 19.6701 26.25 19.8927 26.25 20.1248C26.25 20.3568 26.3136 20.5794 26.4267 20.7435C26.5399 20.9076 26.6934 20.9998 26.8534 20.9998V20.9998Z"
          fill="currentColor"/>
</svg>
